<svg width="65" height="64" viewBox="0 0 65 64" fill="none" xmlns="http://www.w3.org/2000/svg">
<g clip-path="url(#clip0_146_14644)">
<path d="M62.2886 33.0303C62.5141 33.1996 62.784 33.286 63.0557 33.286C63.2504 33.286 63.4461 33.2416 63.6269 33.1512C64.0598 32.9349 64.3334 32.4923 64.3334 32.0082V26.8756C64.3334 26.4734 64.1441 26.0948 63.8226 25.8535L57.8888 21.4005C57.8894 21.3842 57.8912 21.3681 57.8912 21.3516V10.3705C57.8912 9.66484 57.319 9.09271 56.6134 9.09271H47.7619C47.0562 9.09271 46.4841 9.66484 46.4841 10.3705V12.8421L33.1553 2.83962C32.7007 2.49861 32.0759 2.49861 31.6213 2.83962L0.954066 25.8533C0.63238 26.0947 0.443265 26.4732 0.443265 26.8754V32.008C0.443265 32.4921 0.716874 32.9346 1.14973 33.151C1.58259 33.3674 2.10073 33.3208 2.48807 33.0301L2.99887 32.6468V58.8604H1.61118C0.90551 58.8604 0.333374 59.4325 0.333374 60.1382C0.333374 60.8439 0.90551 61.416 1.61118 61.416H63.0522C63.7579 61.416 64.33 60.8439 64.33 60.1382C64.33 59.4325 63.7579 58.8604 63.0522 58.8604H61.7778V32.6468L62.2886 33.0303ZM49.0397 11.6483H55.3356V19.4846L49.0397 14.7599V11.6483ZM2.99887 27.5141L32.3883 5.45928L61.7778 27.5141V29.4518L33.1552 7.97239C32.9279 7.80181 32.6581 7.71651 32.3882 7.71651C32.1182 7.71651 31.8484 7.80181 31.6212 7.97239L2.99887 29.4518V27.5141ZM37.396 58.8605H27.2674C27.2715 58.8189 27.2738 58.7767 27.2738 58.734V37.2577H37.3896V58.734C37.3896 58.7767 37.3919 58.8189 37.396 58.8605ZM59.2222 31.0033V58.8604H39.9389C39.943 58.8187 39.9452 58.7765 39.9452 58.7339V35.9799C39.9452 35.2742 39.3731 34.7021 38.6674 34.7021H25.996C25.2903 34.7021 24.7182 35.2742 24.7182 35.9799V58.734C24.7182 58.7767 24.7204 58.8189 24.7245 58.8605H5.55447V31.0033C5.55447 30.916 5.54553 30.8307 5.52892 30.7481L32.3883 10.5919L59.2477 30.7481C59.2309 30.8307 59.2222 30.916 59.2222 31.0033Z" fill="white"/>
<path d="M29.8557 47.3436C29.5202 47.3436 29.1912 47.481 28.9534 47.7174C28.7154 47.9554 28.5795 48.286 28.5795 48.6214C28.5795 48.9585 28.7154 49.2875 28.9534 49.5255C29.1912 49.7635 29.5204 49.8992 29.8557 49.8992C30.1927 49.8992 30.5217 49.7635 30.7597 49.5255C30.9977 49.2875 31.1351 48.9585 31.1351 48.6214C31.1351 48.286 30.9979 47.957 30.7597 47.7174C30.5217 47.4812 30.1929 47.3436 29.8557 47.3436Z" fill="white"/>
<path d="M25.9252 24.386C25.9252 27.9181 28.7986 30.7916 32.3308 30.7916C35.863 30.7916 38.7364 27.918 38.7364 24.386C38.7364 20.854 35.8628 17.9803 32.3308 17.9803C28.7988 17.9803 25.9252 20.8538 25.9252 24.386ZM32.3308 28.236C30.6558 28.236 29.228 27.1604 28.6998 25.6638H35.962C35.4338 27.1604 34.0058 28.236 32.3308 28.236ZM35.962 23.1082H28.6998C29.228 21.6117 30.6558 20.536 32.3308 20.536C34.0058 20.536 35.4338 21.6117 35.962 23.1082Z" fill="white"/>
<path d="M20.9112 49.9911V35.9808C20.9112 35.2751 20.3391 34.703 19.6334 34.703H10.6688C9.96314 34.703 9.39101 35.2751 9.39101 35.9808V49.9919C8.70243 50.0116 8.14978 50.5744 8.14978 51.2678C8.14978 51.9735 8.72192 52.5456 9.42758 52.5456H10.6688H19.6334H20.8879C21.5935 52.5456 22.1657 51.9735 22.1657 51.2678C22.1658 50.57 21.606 50.0037 20.9112 49.9911ZM18.3556 37.2586V39.8142H11.9466V37.2586H18.3556ZM11.9466 49.99V42.3698H18.3556V49.99H11.9466Z" fill="white"/>
<path d="M43.8944 52.5456H45.1423H54.1069H55.3548C56.0605 52.5456 56.6326 51.9735 56.6326 51.2678C56.6326 50.5722 56.0765 50.0076 55.3847 49.9914V35.9808C55.3847 35.2751 54.8126 34.703 54.1069 34.703H45.1423C44.4366 34.703 43.8645 35.2751 43.8645 35.9808V49.9914C43.1727 50.0076 42.6166 50.5722 42.6166 51.2678C42.6166 51.9735 43.1889 52.5456 43.8944 52.5456ZM46.4201 49.99V42.3698H52.8291V49.99H46.4201ZM52.8291 37.2586V39.8142H46.4201V37.2586H52.8291Z" fill="white"/>
</g>
<defs>
<clipPath id="clip0_146_14644">
<rect width="64" height="64" fill="white" transform="translate(0.333374)"/>
</clipPath>
</defs>
</svg>
