<svg width="65" height="64" viewBox="0 0 65 64" fill="none" xmlns="http://www.w3.org/2000/svg">
<g clip-path="url(#clip0_146_14621)">
<path d="M63.9595 19.3582L33.2395 3.98497C32.8789 3.80449 32.4546 3.80449 32.0939 3.98497L1.37395 19.3582C0.940508 19.5752 0.666748 20.0182 0.666748 20.5029V25.6445C0.666748 26.0882 0.896668 26.5003 1.27395 26.7334C1.65171 26.9667 2.12307 26.9875 2.51955 26.7891L4.45347 25.8213V57.5925H3.12003C2.41315 57.5925 1.84003 58.1656 1.84003 58.8725C1.84003 59.5794 2.41315 60.1525 3.12003 60.1525H62.2135C62.9203 60.1525 63.4935 59.5794 63.4935 58.8725C63.4935 58.1656 62.9203 57.5925 62.2135 57.5925H60.88V25.8213L62.8139 26.7891C62.9947 26.8795 63.1909 26.9245 63.3867 26.9245C63.6207 26.9245 63.8539 26.8605 64.0595 26.7334C64.4368 26.5002 64.6667 26.0882 64.6667 25.6445V20.5029C64.6667 20.0182 64.393 19.5752 63.9595 19.3582ZM47.9735 47.2725H17.36V44.7925H47.9735V47.2725ZM17.36 49.8325H47.9735V52.5525H17.36V49.8325ZM47.9735 42.2325H17.36V39.6192H47.9735V42.2325ZM17.36 55.1125H47.9735V57.5925H17.36V55.1125ZM58.32 57.5925H50.5335V38.3391C50.5335 37.6322 49.9603 37.059 49.2535 37.059H16.08C15.3731 37.059 14.8 37.6322 14.8 38.3391V57.5923H7.01347V24.5402L32.6667 11.7024L58.32 24.5402V57.5925ZM62.1067 23.5725L33.2395 9.12641C32.8789 8.94593 32.4546 8.94593 32.0939 9.12641L3.22675 23.5725V21.2936L32.6667 6.56081L62.1067 21.2936V23.5725Z" fill="white"/>
<path d="M22.481 24.3633H16.0796C15.3727 24.3633 14.7996 24.9364 14.7996 25.6433V32.0447C14.7996 32.7516 15.3727 33.3247 16.0796 33.3247H22.481C23.1879 33.3247 23.761 32.7516 23.761 32.0447V25.6433C23.761 24.9362 23.1879 24.3633 22.481 24.3633ZM21.201 30.7646H17.3596V26.9231H21.201V30.7646Z" fill="white"/>
<path d="M42.853 33.3247H49.2544C49.9613 33.3247 50.5344 32.7516 50.5344 32.0447V25.6433C50.5344 24.9364 49.9613 24.3633 49.2544 24.3633H42.853C42.1461 24.3633 41.573 24.9364 41.573 25.6433V32.0447C41.573 32.7518 42.1461 33.3247 42.853 33.3247ZM44.133 26.9234H47.9744V30.7649H44.133V26.9234Z" fill="white"/>
<path d="M26.2664 25.6433V32.0447C26.2664 32.7516 26.8395 33.3247 27.5464 33.3247H37.7864C38.4932 33.3247 39.0664 32.7516 39.0664 32.0447V25.6433C39.0664 24.9364 38.4932 24.3633 37.7864 24.3633H27.5464C26.8395 24.3633 26.2664 24.9362 26.2664 25.6433ZM28.8264 26.9233H36.5064V30.7647H28.8264V26.9233Z" fill="white"/>
</g>
<defs>
<clipPath id="clip0_146_14621">
<rect width="64" height="64" fill="white" transform="translate(0.666748)"/>
</clipPath>
</defs>
</svg>
