<svg width="32" height="32" viewBox="0 0 32 32" fill="none" xmlns="http://www.w3.org/2000/svg">
<path d="M25.2792 1H6.71921C5.20298 1.00264 3.74961 1.60613 2.67748 2.67827C1.60534 3.7504 1.00185 5.20377 0.999207 6.72V25.28C1.00185 26.7962 1.60534 28.2496 2.67748 29.3217C3.74961 30.3939 5.20298 30.9974 6.71921 31H25.2792C26.7954 30.9974 28.2488 30.3939 29.3209 29.3217C30.3931 28.2496 30.9966 26.7962 30.9992 25.28V6.72C30.9966 5.20377 30.3931 3.7504 29.3209 2.67827C28.2488 1.60613 26.7954 1.00264 25.2792 1ZM28.9992 25.28C28.9966 26.2658 28.6038 27.2105 27.9067 27.9075C27.2097 28.6046 26.265 28.9974 25.2792 29H6.71921C5.73341 28.9974 4.78875 28.6046 4.09168 27.9075C3.39462 27.2105 3.00185 26.2658 2.99921 25.28V6.72C3.00185 5.73421 3.39462 4.78954 4.09168 4.09248C4.78875 3.39541 5.73341 3.00264 6.71921 3H25.2792C26.265 3.00264 27.2097 3.39541 27.9067 4.09248C28.6038 4.78954 28.9966 5.73421 28.9992 6.72V25.28Z" fill="#7A7474"/>
<path d="M24.9992 17.84C24.734 17.84 24.4796 17.9454 24.2921 18.1329C24.1046 18.3204 23.9992 18.5748 23.9992 18.84V22.59L9.40921 8H13.1592C13.4244 8 13.6788 7.89464 13.8663 7.70711C14.0538 7.51957 14.1592 7.26522 14.1592 7C14.1592 6.73478 14.0538 6.48043 13.8663 6.29289C13.6788 6.10536 13.4244 6 13.1592 6H6.68921C6.50621 6 6.3307 6.0727 6.2013 6.2021C6.0719 6.3315 5.99921 6.507 5.99921 6.69V13.16C5.99921 13.4252 6.10456 13.6796 6.2921 13.8671C6.47964 14.0546 6.73399 14.16 6.99921 14.16C7.26442 14.16 7.51878 14.0546 7.70631 13.8671C7.89385 13.6796 7.99921 13.4252 7.99921 13.16V9.41L22.5892 24H18.8392C18.574 24 18.3196 24.1054 18.1321 24.2929C17.9446 24.4804 17.8392 24.7348 17.8392 25C17.8392 25.2652 17.9446 25.5196 18.1321 25.7071C18.3196 25.8946 18.574 26 18.8392 26H25.3092C25.4922 26 25.6677 25.9273 25.7971 25.7979C25.9265 25.6685 25.9992 25.493 25.9992 25.31V18.84C25.9992 18.5748 25.8939 18.3204 25.7063 18.1329C25.5188 17.9454 25.2644 17.84 24.9992 17.84Z" fill="#7A7474"/>
</svg>
