<svg width="32" height="32" viewBox="0 0 32 32" fill="none" xmlns="http://www.w3.org/2000/svg">
<path fill-rule="evenodd" clip-rule="evenodd" d="M16 30.6666C16 30.6666 28 22.6666 28 13.3333C28 10.1507 26.7357 7.09841 24.4853 4.84797C22.2348 2.59753 19.1826 1.33325 16 1.33325C12.8174 1.33325 9.76515 2.59753 7.51472 4.84797C5.26428 7.09841 4 10.1507 4 13.3333C4 22.6666 16 30.6666 16 30.6666ZM20 13.3333C20 15.5424 18.2091 17.3333 16 17.3333C13.7909 17.3333 12 15.5424 12 13.3333C12 11.1241 13.7909 9.33325 16 9.33325C18.2091 9.33325 20 11.1241 20 13.3333Z" fill="#0057FF"/>
</svg>
