<svg width="32" height="32" viewBox="0 0 32 32" fill="none" xmlns="http://www.w3.org/2000/svg">
<path d="M26.6659 23.0003H24.9992V14.3336H26.2832C27.7805 14.3336 28.9992 13.115 28.9992 11.6176C28.9992 10.6736 28.5219 9.81229 27.7219 9.31496L18.9925 3.85763C17.1939 2.73496 14.8019 2.73496 13.0045 3.85763L4.27654 9.31496C3.47654 9.81363 2.99921 10.675 2.99921 11.619C2.99921 13.1163 4.21787 14.335 5.71521 14.335H6.99921V23.0016H5.33254C4.04587 23.0016 2.99921 24.0483 2.99921 25.335V26.6683C2.99921 27.955 4.04587 29.0016 5.33254 29.0016H26.6659C27.9525 29.0016 28.9992 27.955 28.9992 26.6683V25.335C28.9992 24.0483 27.9525 23.0003 26.6659 23.0003ZM22.9992 23.0003H19.6659V14.3336H22.9992V23.0003ZM14.3325 14.3336H17.6659V23.0003H14.3325V14.3336ZM4.99921 11.6176C4.99921 11.3683 5.12454 11.143 5.33521 11.0096L14.0645 5.55363C14.6459 5.19096 15.3139 4.99896 15.9992 4.99896C16.6845 4.99896 17.3525 5.19096 17.9339 5.55363L26.6632 11.011C26.8739 11.143 26.9992 11.3696 26.9992 11.6176C26.9992 12.0123 26.6779 12.3336 26.2832 12.3336H5.71521C5.32054 12.3336 4.99921 12.0123 4.99921 11.6176ZM8.99921 14.3336H12.3325V23.0003H8.99921V14.3336ZM26.9992 26.667C26.9992 26.851 26.8499 27.0003 26.6659 27.0003H5.33254C5.14854 27.0003 4.99921 26.851 4.99921 26.667V25.3336C4.99921 25.1496 5.14854 25.0003 5.33254 25.0003H26.6659C26.8499 25.0003 26.9992 25.1496 26.9992 25.3336V26.667Z" fill="black"/>
</svg>
