<svg width="32" height="32" viewBox="0 0 32 32" fill="none" xmlns="http://www.w3.org/2000/svg">
<g clip-path="url(#clip0_2426_351)">
<path d="M30.437 16.0418V15.4323C30.437 14.3096 29.8558 13.3207 28.9789 12.7488V6.10084C28.9789 4.35171 27.5559 2.92871 25.8068 2.92871H6.19164C4.44252 2.92871 3.01946 4.35171 3.01946 6.10084V12.7488C2.14258 13.3206 1.56133 14.3096 1.56133 15.4323V16.0417C0.663456 16.2781 -0.000793457 17.0969 -0.000793457 18.068V25.199C-0.000793457 26.3209 0.885582 27.2395 1.99477 27.2916V28.1356C1.99477 28.6523 2.41371 29.0713 2.93046 29.0713C3.44721 29.0713 3.86614 28.6523 3.86614 28.1356V27.2941H28.1322V28.1356C28.1322 28.6523 28.5511 29.0713 29.0679 29.0713C29.5846 29.0713 30.0036 28.6523 30.0036 28.1356V27.2916C31.1128 27.2394 31.9992 26.3208 31.9992 25.199V18.068C31.9992 17.0968 31.335 16.2781 30.437 16.0418ZM4.89089 6.10084C4.89089 5.38359 5.47439 4.80009 6.19164 4.80009H25.8068C26.524 4.80009 27.1075 5.38359 27.1075 6.10084V12.23H25.8599V10.5808C25.8599 9.4264 24.9208 8.48721 23.7663 8.48721H18.7315C17.5771 8.48721 16.6379 9.4264 16.6379 10.5808V12.23H15.3605V10.5808C15.3605 9.4264 14.4213 8.48721 13.267 8.48721H8.23208C7.07764 8.48721 6.13852 9.4264 6.13852 10.5808V12.23H4.89089V6.10084ZM23.9885 10.5807V12.0078C23.9885 12.1303 23.8888 12.23 23.7663 12.23H18.7315C18.609 12.23 18.5093 12.1303 18.5093 12.0078V10.5807C18.5093 10.4582 18.609 10.3586 18.7315 10.3586H23.7663C23.8888 10.3586 23.9885 10.4582 23.9885 10.5807ZM13.4891 10.5807V12.0078C13.4891 12.1303 13.3894 12.23 13.267 12.23H8.23208C8.10958 12.23 8.00996 12.1303 8.00996 12.0078V10.5807C8.00996 10.4582 8.10964 10.3586 8.23208 10.3586H13.267C13.3894 10.3586 13.4891 10.4582 13.4891 10.5807ZM3.43277 15.4323C3.43277 14.6984 4.02983 14.1014 4.76371 14.1014H27.2347C27.9686 14.1014 28.5656 14.6985 28.5656 15.4323V15.9728H3.43277V15.4323ZM30.1278 25.199C30.1278 25.3223 30.0274 25.4227 29.904 25.4227H2.09439C1.97102 25.4227 1.87058 25.3223 1.87058 25.199V18.068C1.87058 17.9446 1.97096 17.8443 2.09439 17.8443H29.904C30.0274 17.8443 30.1278 17.9446 30.1278 18.068V25.199H30.1278Z" fill="#7A7474"/>
</g>
<defs>
<clipPath id="clip0_2426_351">
<rect width="32" height="32" fill="white" transform="translate(-0.000793457)"/>
</clipPath>
</defs>
</svg>
