<svg width="32" height="32" viewBox="0 0 32 32" fill="none" xmlns="http://www.w3.org/2000/svg">
<path d="M29.2978 22.7055V14.4005L29.5348 14.2625C30.0378 13.9705 30.3378 13.4495 30.3378 12.8685C30.3378 12.2875 30.0378 11.7655 29.5348 11.4735L17.3778 4.41147C16.3548 3.81547 15.0818 3.81647 14.0588 4.41147L1.90082 11.4745C1.39882 11.7665 1.09882 12.2875 1.09882 12.8685C1.09882 13.4495 1.39882 13.9705 1.90082 14.2635L5.58682 16.4055V21.3845C5.58682 22.5405 6.20882 23.6155 7.20882 24.1925L12.2828 27.1175C13.3418 27.7275 14.5298 28.0335 15.7178 28.0335C16.9058 28.0335 18.0928 27.7285 19.1528 27.1175L24.2258 24.1925C25.2268 23.6165 25.8488 22.5405 25.8488 21.3845V16.4045L27.4978 15.4465V22.7055C27.0748 22.9935 26.7968 23.4785 26.7968 24.0295C26.7968 24.9135 27.5138 25.6305 28.3978 25.6305C29.2818 25.6305 29.9988 24.9135 29.9988 24.0295C29.9988 23.4795 29.7208 22.9945 29.2978 22.7055ZM24.0498 21.3835H24.0488C24.0488 21.8975 23.7738 22.3755 23.3278 22.6315L18.2548 25.5565C16.6908 26.4575 14.7458 26.4575 13.1828 25.5565L8.10882 22.6315C7.66382 22.3755 7.38782 21.8975 7.38782 21.3835V17.4505L14.0588 21.3265C14.5708 21.6235 15.1448 21.7725 15.7188 21.7725C16.2928 21.7725 16.8668 21.6245 17.3788 21.3265L24.0498 17.4505V21.3835ZM16.4738 19.7705C16.0078 20.0415 15.4288 20.0415 14.9628 19.7705L3.08382 12.8685L14.9618 5.96647C15.4278 5.69547 16.0068 5.69547 16.4728 5.96647L28.3518 12.8675L16.4738 19.7705Z" fill="black"/>
</svg>
