<svg width="32" height="32" viewBox="0 0 32 32" fill="none" xmlns="http://www.w3.org/2000/svg">
<path d="M26.8439 7.58562H22.8625V5.0545C22.8625 3.92164 21.9131 3 20.7461 3H11.2523C10.0854 3 9.13593 3.92164 9.13593 5.0545V7.58562H5.15451C3.41468 7.58562 1.99921 8.95966 1.99921 10.6486V25.9371C1.99921 27.626 3.41468 29 5.15451 29H26.8439C28.5837 29 29.9992 27.626 29.9992 25.9371V10.6486C29.9992 8.95966 28.5837 7.58562 26.8439 7.58562ZM10.8859 5.0545C10.8859 4.86169 11.0537 4.69877 11.2523 4.69877H20.7461C20.9447 4.69877 21.1125 4.86164 21.1125 5.0545V7.58562H10.8859V5.0545ZM28.2492 25.9371C28.2492 26.6892 27.6188 27.3012 26.8439 27.3012H5.15451C4.37959 27.3012 3.74921 26.6892 3.74921 25.9371V10.6486C3.74921 9.89637 4.37959 9.28439 5.15451 9.28439H26.8439C27.6188 9.28439 28.2492 9.89632 28.2492 10.6486V25.9371ZM21.468 15.4328H18.9455V12.9842C18.9455 12.5151 18.5537 12.1348 18.0705 12.1348H13.928C13.4448 12.1348 13.053 12.5151 13.053 12.9842V15.4328H10.5305C10.0472 15.4328 9.65546 15.8131 9.65546 16.2822V20.3034C9.65546 20.7725 10.0472 21.1528 10.5305 21.1528H13.0529V23.6014C13.0529 24.0705 13.4447 24.4508 13.9279 24.4508H18.0704C18.5537 24.4508 18.9454 24.0705 18.9454 23.6014V21.1528H21.468C21.9512 21.1528 22.343 20.7725 22.343 20.3034V16.2822C22.343 15.8131 21.9512 15.4328 21.468 15.4328ZM20.593 19.454H18.0705C17.5873 19.454 17.1955 19.8343 17.1955 20.3034V22.752H14.803V20.3034C14.803 19.8343 14.4112 19.454 13.928 19.454H11.4055V17.1315H13.9279C14.4111 17.1315 14.8029 16.7512 14.8029 16.2822V13.8335H17.1954V16.2822C17.1954 16.7512 17.5872 17.1315 18.0704 17.1315H20.593V19.454Z" fill="black"/>
</svg>
