<svg width="32" height="32" viewBox="0 0 32 32" fill="none" xmlns="http://www.w3.org/2000/svg">
<path fill-rule="evenodd" clip-rule="evenodd" d="M15.9992 3C8.82454 3 2.99921 8.82533 2.99921 16C2.99921 23.1747 8.82454 29 15.9992 29C23.1739 29 28.9992 23.1747 28.9992 16C28.9992 8.82533 23.1739 3 15.9992 3ZM15.9992 5C22.0699 5 26.9992 9.92933 26.9992 16C26.9992 22.0707 22.0699 27 15.9992 27C9.92854 27 4.99921 22.0707 4.99921 16C4.99921 9.92933 9.92854 5 15.9992 5Z" fill="#7A7474"/>
<path fill-rule="evenodd" clip-rule="evenodd" d="M13.6659 18.3333H17.3325C18.4819 18.3333 19.5845 17.8773 20.3965 17.064C21.2099 16.252 21.6659 15.1493 21.6659 14C21.6659 12.8506 21.2099 11.748 20.3965 10.936C19.5845 10.1226 18.4819 9.66663 17.3325 9.66663C15.1365 9.66663 12.6659 9.66663 12.6659 9.66663C12.1139 9.66663 11.6659 10.1146 11.6659 10.6666V21.3333C11.6659 21.8853 12.1139 22.3333 12.6659 22.3333C13.2179 22.3333 13.6659 21.8853 13.6659 21.3333V18.3333ZM13.6659 16.3333H17.3325C17.9512 16.3333 18.5445 16.088 18.9819 15.6493C19.4205 15.212 19.6659 14.6186 19.6659 14C19.6659 13.3813 19.4205 12.788 18.9819 12.3506C18.5445 11.912 17.9512 11.6666 17.3325 11.6666H13.6659V16.3333Z" fill="#7A7474"/>
</svg>
