<svg width="32" height="32" viewBox="0 0 32 32" fill="none" xmlns="http://www.w3.org/2000/svg">
<g clip-path="url(#clip0_2426_341)">
<path d="M28.0685 3.93274H3.92987C1.91067 3.93594 0.275465 5.57221 0.274399 7.59141V21.1829C0.275465 23.2021 1.91067 24.8383 3.92987 24.8405H12.7907L9.5992 26.5333C8.65307 26.9727 9.3112 28.4202 10.2669 27.9871C10.3213 27.9455 15.9331 24.9909 15.9992 24.9471L21.6451 27.9477C21.7603 28.0095 21.8883 28.0415 22.0195 28.0415C22.8355 28.0746 23.1341 26.8906 22.3992 26.5333L19.2077 24.8405H28.0685C30.0867 24.8383 31.7219 23.2021 31.724 21.1839V7.59141C31.7229 5.57221 30.0877 3.93594 28.0685 3.93274ZM30.124 21.1818C30.124 22.3178 29.2045 23.2383 28.0685 23.2394H3.92987C2.79493 23.2383 1.87547 22.3178 1.8744 21.1829V7.59141C1.8744 6.45541 2.79387 5.53487 3.92987 5.53381H28.0685C29.2035 5.53487 30.1229 6.45541 30.124 7.59034V21.1818Z" fill="#7A7474"/>
<path d="M14.5891 10.6923H8.56666C8.12506 10.6923 7.76666 11.0507 7.76666 11.4923C7.76666 11.9339 8.12506 12.2923 8.56666 12.2923H10.7779V17.28C10.7779 17.7216 11.1363 18.08 11.5779 18.08C12.0195 18.08 12.3779 17.7216 12.3779 17.28V12.2923H14.5891C15.6355 12.288 15.6355 10.6976 14.5891 10.6923Z" fill="#7A7474"/>
<path d="M23.7827 10.7732C23.3859 10.5791 22.9069 10.7444 22.7128 11.1412L20.6093 15.4527L18.5069 11.1391C18.0429 10.2004 16.6093 10.898 17.0659 11.8431L19.8904 17.6308C20.1656 18.2122 21.052 18.2164 21.3283 17.6308L24.1507 11.8431C24.3448 11.4463 24.1795 10.9674 23.7827 10.7732Z" fill="#7A7474"/>
</g>
<defs>
<clipPath id="clip0_2426_341">
<rect width="32" height="32" fill="white" transform="translate(-0.000793457)"/>
</clipPath>
</defs>
</svg>
