<svg width="32" height="32" viewBox="0 0 32 32" fill="none" xmlns="http://www.w3.org/2000/svg">
<path d="M28.6447 13.3694C21.932 7.00786 11.5966 6.67303 4.50344 12.366C4.10999 12.6818 3.72636 13.0163 3.35375 13.3694C2.95288 13.7492 2.31995 13.7323 1.94004 13.3314C1.56015 12.9305 1.57715 12.2976 1.97801 11.9177C2.39047 11.5268 2.81541 11.1563 3.25152 10.8063C11.118 4.49266 22.5759 4.86272 30.0204 11.9177C30.4212 12.2976 30.4383 12.9305 30.0584 13.3314C29.6785 13.7323 29.0455 13.7492 28.6447 13.3694Z" fill="#7A7474"/>
<path d="M5.95878 16.4922C11.504 10.9471 20.4944 10.9471 26.0396 16.4922C26.4302 16.8828 26.4302 17.516 26.0396 17.9065C25.6491 18.297 25.016 18.297 24.6255 17.9065C19.8614 13.1424 12.1371 13.1424 7.37299 17.9065C6.98246 18.297 6.3493 18.297 5.95878 17.9065C5.56824 17.516 5.56824 16.8828 5.95878 16.4922Z" fill="#7A7474"/>
<path d="M9.95878 20.8354C13.2948 17.4994 18.7036 17.4994 22.0396 20.8354C22.4302 21.2259 22.4302 21.8591 22.0396 22.2496C21.6491 22.6402 21.016 22.6402 20.6255 22.2496C18.0704 19.6946 13.928 19.6946 11.373 22.2496C10.9825 22.6402 10.3493 22.6402 9.95878 22.2496C9.56824 21.8591 9.56824 21.2259 9.95878 20.8354Z" fill="#7A7474"/>
<path d="M15.9992 26.6667C16.9196 26.6667 17.6659 25.9204 17.6659 25C17.6659 24.0795 16.9196 23.3334 15.9992 23.3334C15.0787 23.3334 14.3326 24.0795 14.3326 25C14.3326 25.9204 15.0787 26.6667 15.9992 26.6667Z" fill="#7A7474"/>
</svg>
